<?xml version="1.0" encoding="UTF-8" standalone="no"?>
<svg
   viewBox="0 0 54.254998 86.592"
   version="1.1"
   id="svg12"
   sodipodi:docname="logo-petalbid-small.svg"
   inkscape:version="1.4.2 (ebf0e940d0, 2025-05-08)"
   width="54.255001"
   height="86.592003"
   xmlns:inkscape="http://www.inkscape.org/namespaces/inkscape"
   xmlns:sodipodi="http://sodipodi.sourceforge.net/DTD/sodipodi-0.dtd"
   xmlns="http://www.w3.org/2000/svg"
   xmlns:svg="http://www.w3.org/2000/svg">
  <sodipodi:namedview
     id="namedview12"
     pagecolor="#ffffff"
     bordercolor="#000000"
     borderopacity="0.25"
     inkscape:showpageshadow="2"
     inkscape:pageopacity="0.0"
     inkscape:pagecheckerboard="0"
     inkscape:deskcolor="#d1d1d1"
     inkscape:zoom="2.9615509"
     inkscape:cx="107.71383"
     inkscape:cy="68.713997"
     inkscape:window-width="1920"
     inkscape:window-height="1053"
     inkscape:window-x="0"
     inkscape:window-y="27"
     inkscape:window-maximized="1"
     inkscape:current-layer="svg12" />
  <defs
     id="defs2">
    <style
       id="style1">.a{fill:url(#a);}.b{fill:#0cc988;}.c{fill:#361280;}</style>
    <linearGradient
       id="a"
       x1="17.572001"
       y1="7039.7822"
       x2="8.6960001"
       y2="7024.4092"
       gradientTransform="translate(0.25040273,-6968.2457)"
       gradientUnits="userSpaceOnUse">
      <stop
         offset="0"
         stop-color="#0aad75"
         id="stop1"
         style="stop-color:#5cad0a;stop-opacity:1;" />
      <stop
         offset="1"
         stop-color="#008c5c"
         id="stop2"
         style="stop-color:#468c00;stop-opacity:1;" />
    </linearGradient>
  </defs>
  <path
     class="a"
     d="m 18.534403,50.766253 v 20.3 a 10.838,10.838 0 0 1 -15.2000003,-2.7 10.362,10.362 0 0 1 -1.5,-3.2 v 0 -0.1 a 44.414,44.414 0 0 1 14.4000003,-13.2 c 0.7,-0.3 1.5,-0.7 2.3,-1.1 z"
     id="path2"
     style="fill:url(#a)" />
  <path
     class="b"
     d="m 54.534403,11.666253 a 43.5,43.5 0 0 1 -29.8,36.6 v 0 l -0.6,0.2 v 0 a 43.938,43.938 0 0 0 -22.4000003,16.7 43.638,43.638 0 0 1 52.8000003,-53.5 z"
     id="path4"
     style="fill:#6bc90c;fill-opacity:1" />
</svg>
