<?xml version="1.0" encoding="UTF-8" standalone="no"?>
<svg
   viewBox="0 0 278.084 86.592"
   version="1.1"
   id="svg12"
   sodipodi:docname="logo-petalbid-dark.svg"
   inkscape:version="1.4.2 (ebf0e940d0, 2025-05-08)"
   xmlns:inkscape="http://www.inkscape.org/namespaces/inkscape"
   xmlns:sodipodi="http://sodipodi.sourceforge.net/DTD/sodipodi-0.dtd"
   xmlns="http://www.w3.org/2000/svg"
   xmlns:svg="http://www.w3.org/2000/svg">
  <sodipodi:namedview
     id="namedview12"
     pagecolor="#ffffff"
     bordercolor="#000000"
     borderopacity="0.25"
     inkscape:showpageshadow="2"
     inkscape:pageopacity="0.0"
     inkscape:pagecheckerboard="0"
     inkscape:deskcolor="#d1d1d1"
     inkscape:zoom="2.9615509"
     inkscape:cx="201.07708"
     inkscape:cy="68.545167"
     inkscape:window-width="1920"
     inkscape:window-height="1013"
     inkscape:window-x="0"
     inkscape:window-y="30"
     inkscape:window-maximized="1"
     inkscape:current-layer="svg12" />
  <defs
     id="defs2">
    <style
       id="style1">.a{fill:url(#a);}.b{fill:#0cc988;}.c{fill:#361280;}</style>
    <linearGradient
       id="a"
       x1="17.572"
       y1="7039.782"
       x2="8.696"
       y2="7024.409"
       gradientTransform="translate(0.25040273,-6968.2457)"
       gradientUnits="userSpaceOnUse">
      <stop
         offset="0"
         stop-color="#0aad75"
         id="stop1"
         style="stop-color:#5cad0a;stop-opacity:1;" />
      <stop
         offset="1"
         stop-color="#008c5c"
         id="stop2"
         style="stop-color:#468c00;stop-opacity:1;" />
    </linearGradient>
  </defs>
  <path
     class="a"
     d="m 18.534403,50.766253 v 20.3 a 10.838,10.838 0 0 1 -15.2000003,-2.7 10.362,10.362 0 0 1 -1.5,-3.2 v 0 -0.1 a 44.414,44.414 0 0 1 14.4000003,-13.2 c 0.7,-0.3 1.5,-0.7 2.3,-1.1 z"
     id="path2"
     style="fill:url(#a)" />
  <path
     class="b"
     d="m 54.534403,11.666253 a 43.5,43.5 0 0 1 -29.8,36.6 v 0 l -0.6,0.2 v 0 a 43.938,43.938 0 0 0 -22.4000003,16.7 43.638,43.638 0 0 1 52.8000003,-53.5 z"
     id="path4"
     style="fill:#6bc90c;fill-opacity:1" />
  <path
     d="m 91.935185,37.876024 c 0,-3.999997 -1.493333,-7.306662 -3.999998,-9.333327 -2.506665,-2.079999 -5.919996,-3.146665 -9.919994,-3.146665 H 63.615202 V 64.276009 H 71.66853 V 50.56935 h 6.079997 c 4.106664,0 7.573328,-1.066666 10.133327,-3.146665 2.613332,-2.026665 4.053331,-5.386663 4.053331,-9.546661 z m -8.106662,0.16 c 0,3.626665 -3.253331,5.066664 -6.45333,5.066664 H 71.66853 V 32.969361 h 5.65333 c 1.226666,0 2.239999,0.16 3.199998,0.479999 1.866666,0.586667 3.306665,2.186666 3.306665,4.586664 z"
     id="text27"
     style="font-weight:bold;font-size:53.3333px;font-family:Gordita;-inkscape-font-specification:'Gordita Bold';fill:#ffffff;stroke-width:19.1433;stroke-linecap:round;stroke-linejoin:round;paint-order:stroke fill markers;fill-opacity:1"
     aria-label="P" />
  <path
     d="m 101.37516,48.009352 c 0.16,-1.013333 0.8,-2.079999 1.81333,-3.093332 1.06666,-1.013333 2.34666,-1.493332 3.94666,-1.493332 1.81333,0 3.41333,0.639999 4.26667,1.599999 0.85333,0.959999 1.28,1.973332 1.38666,2.986665 z m 19.03998,5.17333 c 0.10667,-0.64 0.16,-1.546666 0.16,-2.773332 0,-3.946664 -1.22666,-7.146662 -3.67999,-9.599994 -2.45333,-2.453332 -5.6,-3.679998 -9.54666,-3.679998 -2.50667,0 -4.85333,0.586666 -6.98667,1.813332 -2.186662,1.28 -3.893328,2.933332 -5.173327,5.066664 -1.279999,2.133332 -1.919999,4.479997 -1.919999,6.986663 0,2.666665 0.693333,5.066663 1.973332,7.199995 1.333333,2.133332 3.093332,3.786665 5.279994,4.906664 2.24,1.173333 4.64,1.759999 7.30667,1.759999 2.71999,0 5.11999,-0.693333 7.30666,-2.079999 2.18666,-1.386666 3.73333,-3.306665 4.58666,-5.759996 l -6.39999,-2.186666 c -0.37334,1.066666 -1.17334,1.919999 -2.24,2.559999 -1.06667,0.639999 -2.18667,1.013332 -3.36,1.013332 -1.70667,0 -3.09333,-0.479999 -4.32,-1.439999 -1.22666,-0.959999 -1.97333,-2.186665 -2.18666,-3.786664 z"
     id="text26"
     style="font-weight:bold;font-size:53.3333px;font-family:Gordita;-inkscape-font-specification:'Gordita Bold';fill:#ffffff;stroke-width:19.1433;stroke-linecap:round;stroke-linejoin:round;paint-order:stroke fill markers;fill-opacity:1"
     aria-label="e" />
  <path
     d="m 141.69511,44.489354 v -6.719996 h -6.56 v -8.319995 h -7.57333 v 8.319995 h -5.28 v 6.719996 h 5.12 v 10.453327 c 0,6.453329 3.2,9.706661 9.6,9.706661 1.81333,0 3.35999,-0.213333 4.63999,-0.64 v -6.293329 c -1.22666,0.159999 -2.13333,0.213333 -2.72,0.213333 -2.55999,0 -3.78666,-1.28 -3.78666,-3.413332 v -10.02666 z"
     id="text25"
     style="font-weight:bold;font-size:53.3333px;font-family:Gordita;-inkscape-font-specification:'Gordita Bold';fill:#ffffff;stroke-width:19.1433;stroke-linecap:round;stroke-linejoin:round;paint-order:stroke fill markers;fill-opacity:1"
     aria-label="t" />
  <path
     d="m 154.81513,64.809342 c 3.46666,0 6.07999,-1.333333 7.89333,-3.839998 h 0.10666 c 0,1.546666 0.0533,2.613332 0.16,3.306665 h 7.2 c -0.10667,-1.226666 -0.21333,-2.666665 -0.21333,-4.266665 V 47.849352 c 0,-7.039996 -4.85333,-10.773327 -11.41333,-10.719994 -1.92,0 -3.68,0.32 -5.33333,0.906666 -1.70667,0.586667 -3.14667,1.546666 -4.32,2.826665 -1.22666,1.279999 -1.97333,2.826665 -2.29333,4.639997 l 6.82666,1.546666 c 0.58667,-2.239998 2.4,-3.626664 4.74667,-3.626664 2.66666,0 4.15999,1.439999 4.15999,3.306664 0,1.12 -0.69333,1.813333 -2.07999,1.813333 h -2.56 c -2.24,0 -4.21333,0.266666 -6.34667,1.066666 -3.03999,1.066666 -5.33333,3.253331 -5.33333,7.039995 v 0.213334 c 0,2.346665 0.85334,4.266664 2.61334,5.759996 1.70666,1.439999 3.78666,2.186666 6.18666,2.186666 z m 2.24,-5.65333 c -1.81334,0 -3.25333,-0.96 -3.25333,-2.719999 0,-0.959999 0.42666,-1.706665 1.27999,-2.239998 0.8,-0.533333 1.65334,-0.8 2.61334,-0.8 h 4.63999 v 0.64 c 0,1.386666 -0.48,2.613331 -1.44,3.573331 -0.95999,1.013333 -2.23999,1.546666 -3.83999,1.546666 z"
     id="text24"
     style="font-weight:bold;font-size:53.3333px;font-family:Gordita;-inkscape-font-specification:'Gordita Bold';fill:#ffffff;stroke-width:19.1433;stroke-linecap:round;stroke-linejoin:round;paint-order:stroke fill markers;fill-opacity:1"
     aria-label="a" />
  <path
     d="m 176.84175,64.276009 h 7.78666 V 23.796033 h -7.78666 z"
     id="text23"
     style="font-weight:bold;font-size:53.3333px;font-family:Gordita;-inkscape-font-specification:'Gordita Bold';fill:#ffffff;stroke-width:19.1433;stroke-linecap:round;stroke-linejoin:round;paint-order:stroke fill markers;fill-opacity:1"
     aria-label="l" />
  <path
     d="m 222.92175,53.556015 c 0,-2.506665 -0.58667,-4.479997 -1.70667,-5.919996 -1.22667,-1.493333 -2.98666,-2.666666 -5.38666,-3.573332 v -0.05333 c 3.62666,-1.919999 5.43999,-4.693331 5.43999,-8.319995 0,-3.413331 -1.54666,-6.13333 -3.89333,-7.786662 -2.34666,-1.653332 -5.33333,-2.506665 -8.53333,-2.506665 H 192.7351 v 38.879977 h 16.37332 c 6.82666,0 13.81333,-2.826665 13.81333,-10.719994 z m -9.54666,-16.63999 c 0,1.653332 -0.74667,2.879998 -2.02667,3.466665 -1.28,0.586666 -2.56,0.799999 -4.16,0.799999 h -6.61333 v -8.373328 h 7.14667 c 2.71999,0 5.65333,0.906666 5.65333,4.106664 z m 1.70666,15.573324 c 0,1.653332 -0.74667,2.879998 -1.97333,3.466665 -1.22667,0.586666 -2.50667,0.853332 -4.10667,0.853332 h -8.42666 v -8.639994 h 8.16 c 4.26666,0 6.34666,1.439999 6.34666,4.319997 z"
     id="text22"
     style="font-weight:bold;font-size:53.3333px;font-family:Gordita;-inkscape-font-specification:'Gordita Bold';fill:#ffffff;stroke-width:19.1433;stroke-linecap:round;stroke-linejoin:round;paint-order:stroke fill markers;fill-opacity:1"
     aria-label="B" />
  <path
     d="m 229.16171,31.902695 c 0.96,0.959999 2.08,1.439999 3.36,1.439999 1.33333,0 2.50667,-0.48 3.46667,-1.439999 0.90666,-0.96 1.38666,-2.026666 1.38666,-3.359998 0,-1.333333 -0.48,-2.506666 -1.38666,-3.466665 -0.96,-0.906666 -2.13334,-1.386666 -3.46667,-1.386666 -1.28,0 -2.4,0.48 -3.36,1.386666 -0.96,0.959999 -1.38666,2.133332 -1.38666,3.466665 0,1.333332 0.42666,2.399998 1.38666,3.359998 z m -0.48,5.866663 v 26.506651 h 7.78667 V 37.769358 Z"
     id="text21"
     style="font-weight:bold;font-size:53.3333px;font-family:Gordita;-inkscape-font-specification:'Gordita Bold';fill:#ffffff;stroke-width:19.1433;stroke-linecap:round;stroke-linejoin:round;paint-order:stroke fill markers;fill-opacity:1"
     aria-label="i" />
  <path
     d="M 270.49505,64.276009 V 23.849366 h -7.73333 v 16.95999 h -0.10667 c -1.28,-1.546666 -2.88,-2.613332 -4.42666,-3.039998 -1.54667,-0.426667 -2.45333,-0.533333 -3.46667,-0.533333 -7.62666,0 -12.74666,7.039996 -12.74666,13.759992 0,3.573331 1.28,7.039995 3.41334,9.54666 2.13333,2.559999 5.49333,4.266665 9.22666,4.266665 3.73333,0 6.45333,-1.333333 8.21333,-3.893331 h 0.10666 v 3.359998 z m -9.38666,-8.426662 c -1.28,1.279999 -2.82667,1.919999 -4.69333,1.919999 -1.86667,0 -3.41333,-0.64 -4.64,-1.919999 -1.28,-1.279999 -1.92,-2.879998 -1.92,-4.85333 0,-1.973333 0.64,-3.573332 1.92,-4.853331 1.28,-1.279999 2.82666,-1.866665 4.64,-1.866665 1.86666,0 3.41333,0.586666 4.69333,1.866665 1.22666,1.279999 1.86666,2.879998 1.86666,4.853331 0,1.973332 -0.64,3.573331 -1.86666,4.85333 z"
     id="text20"
     style="font-weight:bold;font-size:53.3333px;font-family:Gordita;-inkscape-font-specification:'Gordita Bold';fill:#ffffff;stroke-width:19.1433;stroke-linecap:round;stroke-linejoin:round;paint-order:stroke fill markers;fill-opacity:1"
     aria-label="d" />
</svg>
