<?xml version="1.0" encoding="UTF-8" standalone="no"?>
<!-- Uploaded to: SVG Repo, www.svgrepo.com, Generator: SVG Repo Mixer Tools -->

<svg
   fill="#000000"
   version="1.1"
   id="Capa_1"
   width="278"
   height="86"
   viewBox="0 0 137.63745 42.578493"
   xml:space="preserve"
   sodipodi:docname="logo-petalbid.svg"
   inkscape:version="1.4.2 (ebf0e940d0, 2025-05-08)"
   xmlns:inkscape="http://www.inkscape.org/namespaces/inkscape"
   xmlns:sodipodi="http://sodipodi.sourceforge.net/DTD/sodipodi-0.dtd"
   xmlns:xlink="http://www.w3.org/1999/xlink"
   xmlns="http://www.w3.org/2000/svg"
   xmlns:svg="http://www.w3.org/2000/svg"><defs
   id="defs6"><linearGradient
     id="linearGradient18"
     inkscape:collect="always"><stop
       style="stop-color:#8c0089;stop-opacity:1;"
       offset="0.37079778"
       id="stop17" /><stop
       style="stop-color:#c90caf;stop-opacity:1;"
       offset="1"
       id="stop18" /></linearGradient><linearGradient
     inkscape:collect="always"
     xlink:href="#linearGradient18"
     id="linearGradient14"
     gradientUnits="userSpaceOnUse"
     x1="198.03995"
     y1="396.08026"
     x2="198.03995"
     y2="0.00025141591" /></defs><sodipodi:namedview
   id="namedview6"
   pagecolor="#ffffff"
   bordercolor="#666666"
   borderopacity="1.0"
   inkscape:showpageshadow="2"
   inkscape:pageopacity="0.0"
   inkscape:pagecheckerboard="0"
   inkscape:deskcolor="#d1d1d1"
   inkscape:zoom="2.8284271"
   inkscape:cx="134.88062"
   inkscape:cy="49.497475"
   inkscape:window-width="1920"
   inkscape:window-height="1013"
   inkscape:window-x="0"
   inkscape:window-y="30"
   inkscape:window-maximized="1"
   inkscape:current-layer="g5"
   showgrid="false" />
<g
   id="g5"
   style="fill:url(#linearGradient14);stroke-width:12.5;fill-opacity:1"
   transform="matrix(0.0799998,0,0,0.0799998,-4.2729334e-8,5.4460669)">
		
		
		
		
		
		<g
   id="g4"
   style="fill:#80bf40;fill-opacity:1"><path
     d="m 368.738,147.224 c 7.356,-18.313 7.362,-36.373 -1.709,-48.867 -16.381,-22.556 -56.126,-18.441 -88.78,9.187 -32.935,27.868 -37.662,71.655 -34.661,80.346 2.68,8.795 32.242,41.438 75.267,44.629 42.656,3.157 77.229,-16.876 77.225,-44.753 -0.005,-15.444 -10.625,-30.052 -27.342,-40.542 z"
     id="path1"
     style="fill:#80bf40;fill-opacity:1;stroke-width:12.5" /><path
     d="m 313.314,249.568 c -36.682,-22.711 -79.787,-13.676 -87.125,-8.136 -7.535,5.267 -29.447,43.469 -19.186,85.374 10.18,41.545 39.915,68.232 66.426,59.614 14.685,-4.776 25.294,-19.39 30.106,-38.53 19.69,1.339 36.869,-4.237 45.949,-16.726 16.39,-22.549 0.198,-59.078 -36.17,-81.596 z"
     id="path2"
     style="fill:#80bf40;fill-opacity:1;stroke-width:12.5" /><path
     d="m 169.89,241.434 c -7.338,-5.54 -50.442,-14.573 -87.124,8.136 -36.366,22.519 -52.56,59.047 -36.171,81.598 9.08,12.488 26.258,18.063 45.948,16.726 4.813,19.142 15.424,33.756 30.107,38.53 26.511,8.618 56.248,-18.069 66.425,-59.614 10.264,-41.908 -11.65,-80.111 -19.185,-85.376 z"
     id="path3"
     style="fill:#80bf40;fill-opacity:1;stroke-width:12.5" /><path
     d="m 77.225,232.517 c 43.024,-3.188 72.586,-35.834 75.267,-44.628 3,-8.692 -1.728,-52.477 -34.662,-80.347 C 85.177,79.914 45.432,75.801 29.05,98.355 19.977,110.85 19.984,128.91 27.342,147.223 10.625,157.714 0.005,172.322 0,187.763 c -0.003,27.878 34.568,47.911 77.225,44.754 z"
     id="path4"
     style="fill:#80bf40;fill-opacity:1;stroke-width:12.5" /><path
     d="m 198.04,154.794 c 9.192,0.168 49.374,-17.856 65.703,-57.792 C 279.928,57.409 271.556,18.338 245.044,9.729 230.357,4.96 213.184,10.547 198.04,23.206 182.896,10.549 165.722,4.962 151.036,9.729 c -26.513,8.609 -34.884,47.682 -18.698,87.273 16.326,39.935 56.51,57.96 65.702,57.792 z"
     id="path5"
     style="fill:#80bf40;fill-opacity:1;stroke-width:12.5" /><circle
     cx="198.03999"
     cy="198.039"
     r="35"
     id="circle5"
     style="fill:#80bf40;fill-opacity:1;stroke-width:12.5" /></g>
	</g>
<path
   d="m 47.430497,18.014994 c 0,-1.980393 -0.739347,-3.617519 -1.980394,-4.620918 -1.241047,-1.029805 -2.930982,-1.55791 -4.911376,-1.55791 h -7.129418 v 19.249428 h 3.987193 v -6.78615 h 3.010199 c 2.033204,0 3.749545,-0.528105 5.016997,-1.55791 1.293857,-1.003399 2.006799,-2.66693 2.006799,-4.72654 z m -4.013598,0.07922 c 0,1.795557 -1.61072,2.508499 -3.195036,2.508499 h -2.825361 v -5.017001 h 2.798956 c 0.607321,0 1.109021,0.07921 1.584315,0.237646 0.924184,0.290459 1.637126,1.082616 1.637126,2.270852 z"
   id="text27"
   style="font-weight:bold;font-size:53.3333px;font-family:Gordita;-inkscape-font-specification:'Gordita Bold';fill:#4d2e6b;stroke-width:9.47782;stroke-linecap:round;stroke-linejoin:round;paint-order:stroke fill markers;fill-opacity:1"
   aria-label="P" /><path
   d="m 52.104217,23.031992 c 0.07922,-0.5017 0.396079,-1.029805 0.897777,-1.531505 0.528102,-0.501699 1.161829,-0.739346 1.953987,-0.739346 0.897777,0 1.689935,0.316862 2.112423,0.792157 0.422482,0.475294 0.633726,0.976994 0.686533,1.478694 z m 9.42667,2.561309 c 0.05281,-0.316863 0.07922,-0.765752 0.07922,-1.373073 0,-1.953988 -0.607318,-3.538303 -1.821958,-4.752945 -1.214641,-1.214641 -2.772553,-1.821962 -4.72654,-1.821962 -1.241049,0 -2.402877,0.290457 -3.459091,0.897778 -1.082614,0.633727 -1.927582,1.452289 -2.561308,2.508499 -0.633726,1.05621 -0.950589,2.218041 -0.950589,3.459088 0,1.320263 0.343268,2.508499 0.976994,3.564709 0.660132,1.05621 1.531505,1.874773 2.614118,2.429283 1.109022,0.580916 2.297259,0.871373 3.617524,0.871373 1.346663,0 2.5349,-0.343268 3.617518,-1.029805 1.082612,-0.686536 1.848367,-1.637125 2.270849,-2.851766 l -3.168627,-1.082616 c -0.18484,0.528105 -0.580919,0.950589 -1.109021,1.267452 -0.528107,0.316863 -1.082617,0.5017 -1.663532,0.5017 -0.84497,0 -1.531503,-0.237647 -2.138826,-0.712942 C 52.5003,26.99278 52.130625,26.385459 52.025005,25.593301 Z"
   id="text26"
   style="font-weight:bold;font-size:53.3333px;font-family:Gordita;-inkscape-font-specification:'Gordita Bold';fill:#4d2e6b;stroke-width:9.47782;stroke-linecap:round;stroke-linejoin:round;paint-order:stroke fill markers;fill-opacity:1"
   aria-label="e" /><path
   d="M 72.066574,21.289246 V 17.962184 H 68.818726 V 13.842965 H 65.06918 v 4.119219 h -2.614122 v 3.327062 h 2.534906 v 5.175429 c 0,3.195035 1.584316,4.805755 4.752948,4.805755 0.897777,0 1.663527,-0.10562 2.297253,-0.316863 v -3.115819 c -0.607318,0.07921 -1.056209,0.105621 -1.346668,0.105621 -1.267448,0 -1.874771,-0.633727 -1.874771,-1.689937 v -4.964186 z"
   id="text25"
   style="font-weight:bold;font-size:53.3333px;font-family:Gordita;-inkscape-font-specification:'Gordita Bold';fill:#4d2e6b;stroke-width:9.47782;stroke-linecap:round;stroke-linejoin:round;paint-order:stroke fill markers;fill-opacity:1"
   aria-label="t" /><path
   d="m 78.562279,31.349646 c 1.716339,0 3.010196,-0.660131 3.907978,-1.901178 h 0.05281 c 0,0.765752 0.02639,1.293857 0.07922,1.637126 h 3.564711 c -0.05281,-0.607321 -0.105619,-1.320263 -0.105619,-2.112421 v -6.020397 c 0,-3.485493 -2.402878,-5.33386 -5.650726,-5.307455 -0.950589,0 -1.821963,0.158431 -2.640525,0.448889 -0.84497,0.290458 -1.557912,0.765752 -2.138826,1.399478 -0.607318,0.633726 -0.976993,1.399479 -1.135425,2.297257 l 3.379871,0.765752 c 0.290459,-1.10902 1.188237,-1.795556 2.35007,-1.795556 1.32026,0 2.059606,0.712941 2.059606,1.637125 0,0.55451 -0.343267,0.897779 -1.0298,0.897779 h -1.267453 c -1.109021,0 -2.086015,0.132026 -3.142229,0.528105 -1.505095,0.528105 -2.640525,1.61072 -2.640525,3.485492 v 0.105622 c 0,1.161831 0.422488,2.11242 1.293862,2.851767 0.844965,0.712941 1.87477,1.082615 3.063007,1.082615 z m 1.109022,-2.798956 c -0.897783,0 -1.61072,-0.475295 -1.61072,-1.346669 0,-0.475294 0.211239,-0.844967 0.633721,-1.10902 0.396079,-0.264052 0.818567,-0.396079 1.293862,-0.396079 h 2.297253 v 0.316863 c 0,0.686537 -0.237647,1.293857 -0.712942,1.769152 -0.47529,0.5017 -1.109016,0.765753 -1.901174,0.765753 z"
   id="text24"
   style="font-weight:bold;font-size:53.3333px;font-family:Gordita;-inkscape-font-specification:'Gordita Bold';fill:#4d2e6b;stroke-width:9.47782;stroke-linecap:round;stroke-linejoin:round;paint-order:stroke fill markers;fill-opacity:1"
   aria-label="a" /><path
   d="m 89.467628,31.085594 h 3.85517 V 11.044008 h -3.85517 z"
   id="text23"
   style="font-weight:bold;font-size:53.3333px;font-family:Gordita;-inkscape-font-specification:'Gordita Bold';fill:#4d2e6b;stroke-width:9.47782;stroke-linecap:round;stroke-linejoin:round;paint-order:stroke fill markers;fill-opacity:1"
   aria-label="l" /><path
   d="m 112.28178,25.778138 c 0,-1.241047 -0.29046,-2.218041 -0.84497,-2.930982 -0.60732,-0.739348 -1.47869,-1.320263 -2.66692,-1.769153 v -0.0264 c 1.79555,-0.950589 2.69333,-2.323662 2.69333,-4.119219 0,-1.689936 -0.76575,-3.036604 -1.92759,-3.855166 -1.16182,-0.818563 -2.64052,-1.241047 -4.22484,-1.241047 h -7.974382 v 19.249428 h 8.106412 c 3.37987,0 6.83896,-1.399478 6.83896,-5.307455 z M 107.55524,17.5397 c 0,0.818562 -0.36967,1.425883 -1.0034,1.716341 -0.63372,0.290458 -1.26745,0.396079 -2.05961,0.396079 h -3.27425 v -4.145624 h 3.53831 c 1.34666,0 2.79895,0.448889 2.79895,2.033204 z m 0.84497,7.710333 c 0,0.818563 -0.36968,1.425883 -0.97699,1.716342 -0.60733,0.290457 -1.24105,0.422483 -2.03321,0.422483 h -4.17203 v -4.27765 h 4.04001 c 2.11241,0 3.14222,0.712942 3.14222,2.138825 z"
   id="text22"
   style="font-weight:bold;font-size:53.3333px;font-family:Gordita;-inkscape-font-specification:'Gordita Bold';fill:#4d2e6b;stroke-width:9.47782;stroke-linecap:round;stroke-linejoin:round;paint-order:stroke fill markers;fill-opacity:1"
   aria-label="B" /><path
   d="m 115.37118,15.057607 c 0.4753,0.475294 1.02981,0.712941 1.66353,0.712941 0.66013,0 1.24105,-0.237647 1.71635,-0.712941 0.44888,-0.475295 0.68653,-1.0034 0.68653,-1.663531 0,-0.660132 -0.23765,-1.241048 -0.68653,-1.716342 -0.4753,-0.448889 -1.05622,-0.686536 -1.71635,-0.686536 -0.63372,0 -1.18823,0.237647 -1.66353,0.686536 -0.47529,0.475294 -0.68653,1.05621 -0.68653,1.716342 0,0.660131 0.21124,1.188236 0.68653,1.663531 z m -0.23765,2.904577 v 13.12341 h 3.85517 v -13.12341 z"
   id="text21"
   style="font-weight:bold;font-size:53.3333px;font-family:Gordita;-inkscape-font-specification:'Gordita Bold';fill:#4d2e6b;stroke-width:9.47782;stroke-linecap:round;stroke-linejoin:round;paint-order:stroke fill markers;fill-opacity:1"
   aria-label="i" /><path
   d="M 135.83527,31.085594 V 11.070413 h -3.82877 v 8.39687 h -0.0528 c -0.63372,-0.765752 -1.42588,-1.293857 -2.19163,-1.505099 -0.76576,-0.211242 -1.21464,-0.264053 -1.71635,-0.264053 -3.77595,0 -6.31085,3.485494 -6.31085,6.812555 0,1.769152 0.63372,3.485493 1.68994,4.72654 1.05621,1.267452 2.71974,2.11242 4.56811,2.11242 1.84836,0 3.19503,-0.660131 4.06641,-1.927583 h 0.0528 v 1.663531 z m -4.64733,-4.17203 c -0.63372,0.633726 -1.39948,0.950589 -2.32366,0.950589 -0.92419,0 -1.68994,-0.316863 -2.29726,-0.950589 -0.63372,-0.633726 -0.95059,-1.425884 -0.95059,-2.402878 0,-0.976994 0.31687,-1.769152 0.95059,-2.402878 0.63373,-0.633726 1.39948,-0.924183 2.29726,-0.924183 0.92418,0 1.68994,0.290457 2.32366,0.924183 0.60732,0.633726 0.92418,1.425884 0.92418,2.402878 0,0.976994 -0.31686,1.769152 -0.92418,2.402878 z"
   id="text20"
   style="font-weight:bold;font-size:53.3333px;font-family:Gordita;-inkscape-font-specification:'Gordita Bold';fill:#4d2e6b;stroke-width:9.47782;stroke-linecap:round;stroke-linejoin:round;paint-order:stroke fill markers;fill-opacity:1"
   aria-label="d" /></svg>
